<svg width="300" height="300" viewBox="0 0 300 300" fill="none" xmlns="http://www.w3.org/2000/svg">
<rect width="300" height="300" rx="10" fill="#F1EFE5"/>
<path d="M156.08 237C131.918 237 111.49 228.841 94.7988 212.523C78.2663 196.047 70 175.373 70 150.5C70 126.103 78.3458 105.587 95.0373 88.9519C111.888 72.3173 132.871 64 157.988 64C187.715 64 211.083 75.7234 228.092 99.1703L194.232 125.31C183.9 112.478 171.659 106.062 157.511 106.062C145.907 106.062 136.369 110.339 128.897 118.894C121.426 127.449 117.69 137.984 117.69 150.5C117.69 163.174 121.426 173.788 128.897 182.343C136.369 190.74 145.907 194.938 157.511 194.938C165.618 194.938 172.534 193.275 178.256 189.948C183.979 186.462 189.622 181.393 195.186 174.739L230 199.453C221.257 211.335 211.083 220.603 199.478 227.257C187.874 233.752 173.408 237 156.08 237Z" fill="#10100E"/>
</svg>
