<svg width="107" height="27" viewBox="0 0 107 27" fill="none" xmlns="http://www.w3.org/2000/svg">
<path d="M13.3639 26.504C9.71592 26.504 6.63192 25.268 4.11192 22.796C1.61592 20.3 0.36792 17.168 0.36792 13.4C0.36792 9.70402 1.62792 6.59602 4.14792 4.07602C6.69192 1.55602 9.85992 0.296021 13.6519 0.296021C18.1399 0.296021 21.6679 2.07202 24.2359 5.62402L19.1239 9.58402C17.5639 7.64002 15.7159 6.66802 13.5799 6.66802C11.8279 6.66802 10.3879 7.31602 9.25992 8.61202C8.13192 9.90802 7.56792 11.504 7.56792 13.4C7.56792 15.32 8.13192 16.928 9.25992 18.224C10.3879 19.496 11.8279 20.132 13.5799 20.132C14.8039 20.132 15.8479 19.88 16.7119 19.376C17.5759 18.848 18.4279 18.08 19.2679 17.072L24.5239 20.816C23.2039 22.616 21.6679 24.02 19.9159 25.028C18.1639 26.012 15.9799 26.504 13.3639 26.504Z" fill="#F1EFE5"/>
<path d="M23.2088 26V0.80002H30.1928V19.88H42.3968V26H23.2088Z" fill="#F1EFE5"/>
<path d="M61.987 22.688C59.395 25.232 56.167 26.504 52.303 26.504C48.439 26.504 45.211 25.244 42.619 22.724C40.051 20.18 38.767 17.072 38.767 13.4C38.767 9.75202 40.063 6.65602 42.655 4.11202C45.271 1.56802 48.511 0.296021 52.375 0.296021C56.239 0.296021 59.455 1.56802 62.023 4.11202C64.615 6.63202 65.911 9.72802 65.911 13.4C65.911 17.048 64.603 20.144 61.987 22.688ZM52.375 20.204C54.271 20.204 55.807 19.544 56.983 18.224C58.183 16.904 58.783 15.296 58.783 13.4C58.783 11.528 58.171 9.93202 56.947 8.61202C55.723 7.26802 54.175 6.59602 52.303 6.59602C50.431 6.59602 48.895 7.25602 47.695 8.57602C46.519 9.89602 45.931 11.504 45.931 13.4C45.931 15.272 46.531 16.88 47.731 18.224C48.955 19.544 50.503 20.204 52.375 20.204Z" fill="#F1EFE5"/>
<path d="M70.5195 26.18L62.0955 0.80002H69.4755L73.8675 15.38L78.7275 0.728021H84.7395L89.5995 15.38L93.9915 0.80002H101.228L92.8035 26.18H86.7196L81.6435 11.672L76.6035 26.18H70.5195Z" fill="#F1EFE5"/>
<path d="M99.8303 26V0.80002H106.85V26H99.8303Z" fill="#F1EFE5"/>
</svg>
